<?xml version="1.0" standalone="no"?><!DOCTYPE svg PUBLIC "-//W3C//DTD SVG 1.1//EN" "http://www.w3.org/Graphics/SVG/1.1/DTD/svg11.dtd"><svg t="1603623736480" class="icon" viewBox="0 0 1024 1024" version="1.1" xmlns="http://www.w3.org/2000/svg" p-id="3951" xmlns:xlink="http://www.w3.org/1999/xlink" width="200" height="200"><defs><style type="text/css"></style></defs><path d="M512.512 513.024m-412.16 0a412.16 412.16 0 1 0 824.32 0 412.16 412.16 0 1 0-824.32 0Z" p-id="3952"></path><path d="M321.536 268.288H317.44c0-4.096-3.584-7.68-7.68-7.68v-4.096c0-2.048-1.536-4.096-4.096-4.096-2.048 0-4.096 1.536-4.096 4.096v4.096c-4.096 0-7.68 3.584-7.68 7.68h-4.096c-2.048 0-4.096 1.536-4.096 4.096s1.536 4.096 4.096 4.096h4.096c0 4.096 3.584 7.68 7.68 7.68v4.096c0 2.048 1.536 4.096 4.096 4.096 2.048 0 4.096-1.536 4.096-4.096v-4.096c4.096 0 7.68-3.584 7.68-7.68h4.096c2.048 0 4.096-1.536 4.096-4.096s-2.048-4.096-4.096-4.096z" fill="#FFFF00" p-id="3953"></path><path d="M860.16 489.984m-17.92 0a17.92 17.92 0 1 0 35.84 0 17.92 17.92 0 1 0-35.84 0Z" fill="#FFFF00" p-id="3954"></path><path d="M729.088 248.832m-10.24 0a10.24 10.24 0 1 0 20.48 0 10.24 10.24 0 1 0-20.48 0Z" fill="#FFFF00" p-id="3955"></path><path d="M512.512 925.184c69.12 0 133.632-16.896 190.976-47.104v-59.904s-19.456-128-107.52-151.552c-1.536-0.512-35.84-3.072-75.264-4.608v-0.512c-2.56 0-5.12 0-7.68 0.512-2.56 0-5.12 0-7.68-0.512v0.512c-39.936 2.048-74.24 4.608-75.264 4.608-88.064 23.552-107.52 151.552-107.52 151.552v59.904c55.808 30.208 120.832 47.104 189.952 47.104z" fill="#FFFFFF" p-id="3956"></path><path d="M529.92 299.008c-8.192-0.512-39.936-0.512-48.128 0-59.392 2.56-241.152 65.024-233.984 270.336 0 0 12.288 152.064 96.256 149.504h323.584c84.48 2.56 96.256-149.504 96.256-149.504 7.168-205.312-174.592-267.776-233.984-270.336z" fill="#D8D8D8" p-id="3957"></path><path d="M543.232 361.984h-39.936c-49.152 2.048-199.68 53.76-193.536 223.744 0 0 9.728 125.952 79.872 123.904h267.264c69.632 2.048 79.872-123.904 79.872-123.904 6.144-169.984-144.384-222.208-193.536-223.744z" fill="#1B1B1B" p-id="3958"></path><path d="M387.072 524.288s-7.68-45.568 30.208-70.656 58.368-30.208 75.776-25.088c17.92 5.12 43.008 50.688-2.56 80.896s-73.216 47.616-103.424 14.848z" fill="#929292" p-id="3959"></path><path d="M379.392 582.656m-27.648 0a27.648 27.648 0 1 0 55.296 0 27.648 27.648 0 1 0-55.296 0Z" fill="#929292" p-id="3960"></path><path d="M708.096 741.888c0 15.872-15.872 29.184-35.84 29.184H345.088c-19.968 0-35.84-12.8-35.84-29.184 0-15.872 15.872-29.184 35.84-29.184h327.168c19.968 0 35.84 12.8 35.84 29.184z" fill="#B65432" p-id="3961"></path><path d="M443.904 740.864c0 4.608-4.608 8.704-10.24 8.704H337.92c-5.632 0-10.24-3.584-10.24-8.704 0-4.608 4.608-8.704 10.24-8.704h95.232c5.632 0.512 10.752 4.096 10.752 8.704z" fill="#F2A257" p-id="3962"></path><path d="M467.968 742.4m-10.24 0a10.24 10.24 0 1 0 20.48 0 10.24 10.24 0 1 0-20.48 0Z" fill="#F2A257" p-id="3963"></path><path d="M590.336 889.856c0 3.072-2.56 5.632-5.632 5.632H448.512c-3.072 0-5.632-2.56-5.632-5.632v-92.16c0-3.072 2.56-5.632 5.632-5.632h136.192c3.072 0 5.632 2.56 5.632 5.632v92.16z" fill="#7A7A7A" p-id="3964"></path><path d="M573.952 878.592c0 2.56-2.048 4.608-4.608 4.608H462.848c-2.56 0-4.608-2.048-4.608-4.608V808.96c0-2.56 2.048-4.608 4.608-4.608h106.496c2.56 0 4.608 2.048 4.608 4.608v69.632z" fill="#CCCCCC" p-id="3965"></path><path d="M471.552 818.176h38.912v15.36h-38.912zM522.24 818.176h38.912v15.36H522.24zM471.552 845.824h89.6v24.064H471.552z" fill="#FFFFFF" p-id="3966"></path><path d="M186.368 598.528m-10.24 0a10.24 10.24 0 1 0 20.48 0 10.24 10.24 0 1 0-20.48 0Z" fill="#FFFF00" p-id="3967"></path></svg>